0
SECTION
2
HEADER
9
$ACADVER
1
AC1027
9
$EXTMIN
10
0.0
20
0.0
30
0.0
9
$EXTMAX
10
100.0
20
100.0
30
0.0
9
$INSBASE
10
0.0
20
0.0
30
0.0
0
ENDSEC
0
SECTION
2
TABLES
0
TABLE
2
LAYER
0
LAYER
2
0
70
0
62
7
6
Continuous
0
LAYER
2
Walls
70
0
62
2
6
Continuous
0
LAYER
2
Doors
70
0
62
4
6
Continuous
0
LAYER
2
Dimensions
70
0
62
1
6
Continuous
0
LAYER
2
Text
70
0
62
3
6
Continuous
0
ENDTAB
0
ENDSEC
0
SECTION
2
ENTITIES
0
LINE
8
Walls
10
0.0
20
0.0
30
0.0
11
50.0
21
0.0
31
0.0
0
LINE
8
Walls
10
50.0
20
0.0
30
0.0
11
50.0
21
40.0
31
0.0
0
LINE
8
Walls
10
50.0
20
40.0
30
0.0
11
0.0
21
40.0
31
0.0
0
LINE
8
Walls
10
0.0
20
40.0
30
0.0
11
0.0
21
0.0
31
0.0
0
CIRCLE
8
Doors
10
25.0
20
25.0
30
0.0
40
15.0
0
ARC
8
Doors
10
25.0
20
25.0
30
0.0
40
8.0
50
0.0
51
180.0
0
LWPOLYLINE
8
Walls
90
4
70
1
10
60.0
20
10.0
10
80.0
20
10.0
10
80.0
20
30.0
10
60.0
20
30.0
0
TEXT
8
Text
10
10.0
20
45.0
30
0.0
40
3.5
1
Sample Floor Plan
50
0.0
0
TEXT
8
Text
10
10.0
20
42.0
30
0.0
40
2.5
1
Scale: 1:100
0
MTEXT
8
Text
10
60.0
20
45.0
30
0.0
40
3.0
41
30.0
1
{\\fArial|b0|i0|c0|p34;Notes:\\P- All dimensions in mm\\P- Concrete walls}
0
POINT
8
Dimensions
10
25.0
20
25.0
30
0.0
0
INSERT
8
Doors
2
Door_Swing
10
0.0
20
40.0
30
0.0
41
1.0
42
1.0
43
1.0
50
0.0
0
ENDSEC
0
EOF
